
# Wavefront OBJ file
# Converted by the DEEP Exploration Deep Exploration 5 5.0.4.1779 Release
# Right Hemisphere, LTD
# http://www.righthemisphere.com/

# object Box #5
g 5
v -16.66500 -16.66500 15.63167
v -16.66500 -16.66500 48.96167
v -16.66500 16.66500 15.63167
v -16.66500 16.66500 48.96167
v 16.66500 -16.66500 15.63167
v 16.66500 -16.66500 48.96167
v 16.66500 16.66500 15.63167
v 16.66500 16.66500 48.96167
# 8 verticies
vn -1.00000 0.00000 0.00000
vn 1.00000 0.00000 0.00000
vn 0.00000 -1.00000 0.00000
vn 0.00000 1.00000 0.00000
vn 0.00000 0.00000 -1.00000
vn 0.00000 0.00000 1.00000
# 6 normals
f  1//1 4//1 3//1
f  1//1 2//1 4//1
f  5//2 8//2 6//2
f  5//2 7//2 8//2
f  1//3 6//3 2//3
f  1//3 5//3 6//3
f  3//4 8//4 7//4
f  3//4 4//4 8//4
f  1//5 7//5 5//5
f  1//5 3//5 7//5
f  2//6 8//6 4//6
f  2//6 6//6 8//6
# object Pyramid #6
g 6
v 19.99800 0.00000 50.00000
v 0.00000 19.99800 50.00000
v -19.99800 0.00000 50.00000
v 0.00000 -19.99800 50.00000
v 0.00000 0.00000 83.33000
v 0.00000 0.00000 50.00000
# 6 verticies
vn 0.65094 0.65094 0.39057
vn -0.65094 0.65094 0.39057
vn -0.65094 -0.65094 0.39057
vn 0.65094 -0.65094 0.39057
vn 0.00000 0.00000 -1.00000
# 5 normals
f  9//7 10//7 13//7
f  10//8 11//8 13//8
f  11//9 12//9 13//9
f  12//10 9//10 13//10
f  14//11 10//11 9//11
f  14//11 11//11 10//11
f  14//11 12//11 11//11
f  14//11 9//11 12//11
